<svg width="830" height="447" viewBox="0 0 830 447" fill="none" xmlns="http://www.w3.org/2000/svg">
<path d="M0.000244141 161.53V42.8071H22.8117V165.937H46.6595V187.712H0.259717V161.53H0.000244141Z" fill="#EFECE2"/>
<path d="M114.057 162.314C113.279 156.871 112.243 148.317 110.946 136.652L99.8001 43.0729H65.5829C63.7684 58.3669 62.4722 70.0317 61.4353 77.8083C60.3984 85.5849 59.6211 93.3613 58.5842 101.138C57.5474 108.915 56.2512 120.58 54.4366 136.133C53.1405 145.724 52.1035 155.315 51.0666 164.907H51.5848C50.5479 174.239 49.7701 181.756 48.9924 187.459H71.8039C72.8408 177.608 73.3597 170.091 73.8781 165.165V164.388C74.3966 159.463 74.9147 152.204 75.9515 142.613L76.4697 135.874L82.1726 71.8467H82.6915L88.6531 135.874C88.9123 137.948 89.172 140.021 89.172 142.095V142.613L89.6902 148.316C90.2086 154.537 90.7275 159.722 90.9868 164.388C91.5052 169.054 91.7641 173.202 92.2825 176.312C92.801 180.201 93.0604 183.83 93.3196 187.718H117.167C115.612 176.312 114.575 168.017 114.057 162.314ZM66.1011 142.613V164.388H101.096V142.613H66.1011Z" fill="#EFECE2"/>
<path d="M173.416 181.753C168.491 176.569 165.121 168.533 163.048 157.905C160.974 147.277 159.936 133.02 159.936 115.393C159.936 97.7662 160.974 83.5087 163.048 72.8806C165.121 62.2526 168.491 54.2172 173.416 49.0328C178.341 43.8484 185.34 40.9971 194.154 40.9971C205.041 40.9971 212.817 45.6627 217.743 55.2539C222.668 64.845 225.001 78.5838 225.001 96.7292H202.189C201.93 86.6197 201.153 78.5837 199.856 73.1401C198.56 67.4373 196.487 64.8449 193.376 64.8449C190.784 64.8449 188.71 66.4005 187.414 69.252C186.117 72.1034 185.081 77.2877 184.563 84.5459C184.044 91.804 183.785 101.914 183.785 115.653C183.785 129.391 184.044 139.5 184.563 146.759C185.081 154.017 186.117 158.942 187.414 162.052C188.71 164.904 190.784 166.46 193.376 166.46C196.487 166.46 198.82 163.608 199.856 157.905C200.893 152.202 201.93 144.426 202.189 134.575H225.001C225.001 152.461 222.409 166.2 217.225 175.791C212.04 185.382 204.263 190.307 193.894 190.307C184.821 190.307 178.082 187.715 173.157 182.272V181.753H173.416Z" fill="#EFECE2"/>
<path d="M294.733 162.314C293.956 156.871 292.919 148.317 291.623 136.652L280.476 43.0729H246.259C244.445 58.3669 243.148 70.0317 242.112 77.8083C241.075 85.5849 240.297 93.3613 239.26 101.138C238.223 108.915 236.927 120.58 235.113 136.133C233.817 145.724 232.78 155.315 231.743 164.907H232.261C231.224 174.239 230.446 181.756 229.669 187.459H252.48C253.517 177.608 254.036 170.091 254.554 165.165V164.388C255.073 159.463 255.591 152.204 256.628 142.613L257.146 135.874L262.849 71.8467H263.368L269.329 135.874C269.589 137.948 269.848 140.021 269.848 142.095V142.613L270.366 148.316C270.885 154.537 271.403 159.722 271.662 164.388C272.181 169.054 272.44 173.202 272.959 176.312C273.477 180.201 273.737 183.83 273.996 187.718H297.844C296.288 176.312 295.252 168.017 294.733 162.314ZM246.777 142.613V164.388H281.772V142.613H246.777Z" fill="#EFECE2"/>
<path d="M355.653 52.3974C360.319 59.9148 362.392 72.098 362.392 88.6881H339.581C339.581 82.726 339.581 78.0598 339.062 74.69C338.544 71.3201 338.026 68.7277 336.989 67.1724C335.952 65.617 334.656 64.8395 332.841 64.8395C330.508 64.8395 328.953 65.8768 328.175 67.6913C327.398 69.5058 327.138 72.0975 327.138 75.2081C327.138 79.8741 328.435 84.2813 330.768 88.6881C333.101 93.0948 336.989 98.7975 341.914 105.537C346.321 111.24 349.949 116.425 352.801 121.091C355.652 125.757 358.244 130.682 360.059 136.384C362.133 141.828 363.17 147.79 363.17 154.271C363.17 161.27 362.133 167.491 359.8 172.935C357.467 178.378 354.097 182.525 349.69 185.636C345.024 188.747 339.581 190.302 333.359 190.302C321.954 190.302 313.918 185.895 309.252 177.341C304.586 168.787 302.253 156.604 302.253 140.792H325.065C325.065 146.754 325.324 151.679 325.843 155.308C326.361 159.196 327.138 162.047 328.434 163.862C329.73 165.676 331.286 166.714 333.101 166.714C335.174 166.714 336.989 165.417 338.026 163.084C339.063 160.751 339.581 157.9 339.581 154.271C339.581 148.827 338.284 143.643 335.692 138.977C333.1 134.311 328.952 128.349 323.509 121.091C319.102 115.388 315.474 110.722 312.882 106.574C310.289 102.427 307.956 97.7606 306.142 92.5762C304.327 87.3918 303.29 81.6891 303.29 75.7271C303.29 65.6175 305.882 57.3221 311.067 51.1008C316.251 44.8795 323.509 41.7693 332.841 41.7693C343.21 41.7693 350.727 45.3982 355.393 52.9156V52.3974H355.653Z" fill="#EFECE2"/>
<path d="M434.192 162.314C433.415 156.871 432.378 148.317 431.082 136.652L419.935 43.0729H385.718C383.904 58.3669 382.608 70.0317 381.571 77.8083C380.534 85.5849 379.756 93.3613 378.719 101.138C377.682 108.915 376.386 120.58 374.571 136.133C373.275 145.724 372.239 155.315 371.202 164.907H371.72C370.683 174.239 369.906 181.756 369.128 187.459H391.939C392.976 177.608 393.494 170.091 394.013 165.165V164.388C394.531 159.463 395.05 152.204 396.087 142.613L396.605 135.874L402.308 71.8467H402.827L408.789 135.874C409.048 137.948 409.308 140.021 409.308 142.095V142.613L409.826 148.316C410.344 154.537 410.862 159.722 411.121 164.388C411.64 169.054 411.9 173.202 412.418 176.312C412.936 180.201 413.195 183.83 413.454 187.718H437.303C435.748 176.312 434.711 168.017 434.192 162.314ZM386.237 142.613V164.388H421.231V142.613H386.237Z" fill="#EFECE2"/>
<path d="M0 401.855V214.317H32.686C39.1768 239.353 45.6673 264.389 51.9263 289.656L63.0537 332.079H63.7491V214.317H96.435V443.35H63.7491C56.7946 415.996 49.6081 388.873 42.4218 361.519L33.3814 325.588H32.686V443.35H0V401.855Z" fill="#EFECE2"/>
<path d="M233.438 211.074C211.416 211.074 191.711 216.174 173.861 226.606C156.012 237.037 141.871 251.178 131.44 269.028C121.008 286.878 115.908 306.814 115.908 328.836C115.908 350.858 121.008 370.795 131.44 388.645C141.871 406.494 156.012 420.635 173.861 431.066C191.711 441.498 211.647 446.598 233.669 446.598V409.044H233.438C218.602 409.044 205.388 405.798 193.334 399.076C181.511 392.353 172.007 383.081 165.284 370.794C158.562 358.508 155.084 344.599 155.084 328.836C155.084 313.073 158.562 299.164 165.284 286.878C172.007 274.591 181.279 265.319 193.334 258.596C205.388 251.873 218.833 248.628 233.669 248.628V211.074H233.438ZM335.668 268.796C325.237 250.946 311.096 236.806 293.246 226.374C275.396 215.943 255.46 210.842 233.438 210.842V248.396H233.669C248.505 248.396 261.951 251.642 273.774 258.365C285.596 265.087 295.1 274.36 301.823 286.646C308.546 298.932 312.023 312.841 312.023 328.605C312.023 344.368 308.546 358.277 301.823 370.563C295.1 382.849 285.828 392.122 273.774 398.844C261.719 405.567 248.274 408.812 233.438 408.812V446.366H233.669C255.692 446.366 275.396 441.267 293.246 430.835C311.096 420.403 325.237 406.262 335.668 388.413C346.1 370.563 351.2 350.627 351.2 328.605C351.2 306.582 346.1 286.646 335.668 268.796Z" fill="#EFECE2"/>
<path d="M448.793 228.688C455.98 240.51 459.689 259.75 459.689 286.177H423.758C423.758 276.905 423.526 269.487 422.83 263.923C422.135 258.36 421.207 254.65 419.817 252.1C418.426 249.55 416.339 248.391 413.326 248.391C409.617 248.391 407.067 249.782 405.908 252.796C404.749 255.809 404.053 259.751 404.053 264.851C404.053 272.037 405.908 279.223 409.849 286.177C413.558 293.132 419.585 301.941 427.699 312.604C434.653 321.877 440.449 329.991 445.085 337.177C449.721 344.363 453.43 352.477 456.676 361.286C459.921 370.095 461.544 379.598 461.544 389.566C461.544 400.694 459.689 410.43 456.212 419.007C452.503 427.585 447.171 434.307 439.985 439.175C432.799 444.043 424.221 446.593 414.021 446.593C395.94 446.593 383.19 439.871 376.004 426.194C368.818 412.517 365.109 393.276 365.109 368.24H401.04C401.04 377.512 401.503 385.394 402.43 391.421C403.358 397.449 404.749 401.853 406.604 404.866C408.458 407.88 411.008 409.271 414.021 409.271C417.498 409.271 420.049 407.417 421.672 403.708C423.294 399.998 424.221 395.362 424.221 389.566C424.221 380.757 422.135 372.644 417.962 365.226C413.79 357.808 407.299 348.304 398.722 336.945C391.768 327.904 386.204 320.254 382.031 313.995C377.859 307.736 374.381 300.086 371.367 291.973C368.354 283.859 366.963 274.819 366.963 265.546C366.963 249.319 371.135 236.337 379.249 226.369C387.363 216.401 398.954 211.533 413.79 211.533C430.249 211.533 442.303 217.56 449.489 229.383L448.793 228.688Z" fill="#EFECE2"/>
<path d="M497.241 401.855V250.248H471.046V214.317H559.368V250.248H533.172V443.35H497.241V401.855Z" fill="#EFECE2"/>
<path d="M656.73 233.093C645.603 220.575 630.535 214.317 611.295 214.317H575.364V401.855H575.132V443.118H611.063V364.533H611.99C624.508 364.301 635.172 361.288 644.213 355.26C648.849 352.479 652.79 348.769 656.499 344.365C667.858 330.92 673.421 311.679 673.421 287.802C673.421 263.925 667.857 245.611 656.73 233.093ZM611.295 249.784C619.408 249.784 625.436 252.798 629.608 258.825C633.781 264.852 635.867 274.82 635.867 289.193C635.867 303.565 633.781 313.301 629.608 319.329C625.436 325.356 619.408 328.37 611.295 328.37V249.784ZM670.176 435.468C669.48 433.614 668.785 430.832 667.625 426.891L644.213 355.26L638.417 337.874C633.317 337.874 628.217 337.874 622.885 337.874H607.586L608.976 354.796L611.99 364.301L635.172 443.118H672.725C671.798 439.641 670.871 437.091 670.176 435.236V435.468Z" fill="#EFECE2"/>
<path d="M780.288 403.016C779.129 394.207 777.506 380.53 775.42 362.217L761.279 243.296C742.27 238.427 715.148 231.473 701.934 228.228C699.848 245.846 698.457 259.523 697.298 269.259C695.907 281.546 694.516 293.832 692.893 306.118C691.502 318.172 689.184 336.718 686.402 361.29C684.548 376.59 682.926 391.889 681.071 406.957H681.535C679.912 421.793 678.521 433.848 677.362 442.888H713.293C714.684 427.357 715.843 415.535 716.539 407.653V406.03C717.466 398.148 718.161 386.789 719.784 371.721L720.711 361.29L729.984 259.986H730.679L740.184 361.29C740.647 364.535 741.111 367.78 741.111 371.026V371.721C741.111 374.735 741.807 377.749 741.807 380.762C742.502 390.267 743.429 398.844 744.125 406.03C744.82 413.68 745.284 419.939 745.979 425.039C746.674 431.066 747.138 437.093 747.602 443.121H785.156C782.838 425.271 781.447 411.825 780.288 403.016ZM704.948 371.721V406.03H760.583V371.721H704.948Z" fill="#EFECE2"/>
<path d="M618.967 15.3891C625.226 7.97103 634.498 2.17566 644.466 0.784775C652.58 -0.374299 656.057 -0.142484 661.852 0.784775C674.37 2.17566 685.266 11.4483 688.743 14.4618C692.916 18.4027 705.665 31.1525 710.302 34.6297C724.674 44.8296 757.128 65.9247 760.605 68.0111C765.474 70.561 774.746 77.7473 777.992 80.9927C784.019 86.7881 787.496 96.5243 787.496 104.87C787.496 104.87 785.41 145.437 785.178 146.828C784.714 148.219 784.482 149.842 782.86 150.074C780.078 151.001 777.76 149.378 774.978 148.914C772.66 148.451 728.847 133.151 698.479 123.647C680.861 118.083 660.461 114.374 642.612 110.433C615.489 104.87 578.399 97.2197 578.399 97.2197C576.081 96.7561 575.617 95.1334 576.313 93.5107C576.776 92.3516 578.863 86.5563 580.949 80.5291C583.963 72.1837 587.672 64.0702 592.308 56.4203C599.958 43.9023 612.244 23.5026 618.967 15.6209V15.3891Z" fill="#EFECE2"/>
<path d="M819.943 201.081C813.686 197.45 788.917 187.471 781.27 184.974C779.648 184.52 765.744 180.435 765.744 180.435L752.302 176.577L725.652 170.449L718.236 168.861C718.236 168.861 691.354 163.868 687.877 163.414L665.862 160.01C660.531 159.329 655.665 158.195 650.567 156.606L640.138 153.429L628.088 150.025L617.891 146.62C609.78 143.67 604.682 141.628 596.571 138.904L585.447 135.046C585.447 135.046 537.012 122.11 531.219 121.656C520.79 120.749 511.057 120.522 500.861 123.245C497.616 124.153 495.299 127.557 495.994 130.507C496.689 133.23 498.775 135.727 500.861 137.088C500.861 137.088 513.838 143.897 518.936 145.713C520.79 146.166 601.438 167.953 604.914 168.634L664.008 180.208C665.862 180.662 711.052 191.329 711.052 191.329C714.296 192.009 717.309 192.69 720.321 193.598C724.724 194.732 773.623 209.484 776.403 209.711C776.635 209.938 789.613 211.753 796.565 212.888C804.213 214.25 817.653 214.931 825.301 214.704C827.155 214.704 829.704 213.115 829.704 211.073C829.241 205.853 822.492 202.443 819.943 201.081Z" fill="#EFECE2"/>
</svg>
